PathFileType	4	(X/Y/Z)	Walk1_0-155.trc
DataRate	CameraRate	NumFrames	NumMarkers	Units	OrigDataRate	OrigDataStartFrame	OrigNumFrames
30	30	9	22	m	30	19	155
Frame#	Time	Hip			RHip			RKnee			RAnkle			RBigToe			RSmallToe			RHeel			LHip			LKnee			LAnkle			LBigToe			LSmallToe			LHeel			Neck			Head			Nose			RShoulder			RElbow			RWrist			LShoulder			LElbow			LWrist		
		X1	Y1	Z1	X2	Y2	Z2	X3	Y3	Z3	X4	Y4	Z4	X5	Y5	Z5	X6	Y6	Z6	X7	Y7	Z7	X8	Y8	Z8	X9	Y9	Z9	X10	Y10	Z10	X11	Y11	Z11	X12	Y12	Z12	X13	Y13	Z13	X14	Y14	Z14	X15	Y15	Z15	X16	Y16	Z16	X17	Y17	Z17	X18	Y18	Z18	X19	Y19	Z19	X20	Y20	Z20	X21	Y21	Z21	X22	Y22	Z22
20	0.6666666666666666	-2.5098622874352854	0.8172983498374462	0.3179703821535745	-2.4858515541271786	0.8249034026813621	0.41150292642563774	-2.302729873228897	0.5240259950021976	0.4638744456716812	-2.475178691971273	0.1368173292689643	0.4857154319762748	0.0	0.0	0.0	0.0	0.0	0.0	0.0	0.0	0.0	-2.532696724053897	0.8131596646465116	0.22407088180523388	-2.5099160656720887	0.4515374003706149	0.23614002737589965	-2.577871865647463	0.06875113424923351	0.274320267169914	0.0	0.0	0.0	0.0	0.0	0.0	0.0	0.0	0.0	-2.547461680411041	1.4011656237745125	0.261396442824685	-2.366791030248823	1.7174638144293122	0.3578909980384216	-2.3606567382505266	1.6368271968375816	0.27599686844800836	-2.540684284881741	1.3993216366746246	0.4544855645784712	-2.5124416448652025	1.0950679646033206	0.5503398219151308	-2.432153054546914	0.8598683425341702	0.5709810963848806	-2.506933549185699	1.390480069383447	0.12158218655815	-2.502271585518052	1.0901954952826611	0.0627943081533183	-2.4615668020312937	0.8463990716028483	0.0719020157273822
21	0.7	-2.4976932030035264	0.8176793065119349	0.3138208142339891	-2.467381354090838	0.8278680215305195	0.40888145270530163	-2.2808980761630875	0.5310917046626888	0.4580644041402937	-2.436776014013683	0.14034160748008043	0.48021757570185947	0.0	0.0	0.0	0.0	0.0	0.0	0.0	0.0	0.0	-2.5272031065772875	0.8107499313476215	0.21853427532510192	-2.506481833059541	0.4523814435498662	0.23349004668912954	-2.581783057005052	0.07217612243536826	0.2716007005696774	0.0	0.0	0.0	0.0	0.0	0.0	0.0	0.0	0.0	-2.5383467986296027	1.4019098555411746	0.2560587668652295	-2.3578526141205085	1.7176618945024857	0.36242706815624076	-2.351324395763038	1.6339906846436414	0.2746557617204136	-2.532017610486693	1.4021723467099965	0.4518183421489093	-2.511468431231225	1.096001760029275	0.5487196753968844	-2.4287872913248885	0.8641420033296968	0.5709535786234811	-2.4960149265820397	1.388125561973882	0.11980460954679174	-2.493118769782959	1.0906363333541704	0.06238840349038539	-2.450694165098042	0.8482715287983258	0.07238189919305066
22	0.7333333333333333	-2.480720867282113	0.8180995043493647	0.31571735327804545	-2.4472288590773337	0.8304144009718293	0.41013307937974625	-2.2690042643398267	0.5366565254026211	0.4566893541552951	-2.404705892868041	0.13687055972566703	0.4734514472037475	0.0	0.0	0.0	0.0	0.0	0.0	0.0	0.0	0.0	-2.5137950931844073	0.8087792880169158	0.22120661967278257	-2.5032944578070873	0.4526599673325462	0.23306505924303014	-2.5777145056390474	0.0726208923465216	0.2738061687709881	0.0	0.0	0.0	0.0	0.0	0.0	0.0	0.0	0.0	-2.527426622082102	1.4011130161253327	0.2587723549704339	-2.3407759016858147	1.7185708037717624	0.35933749650935654	-2.3353397307358614	1.637563867723837	0.27572574747926376	-2.51946619452377	1.4018649381015256	0.45919741218197757	-2.5050671269682034	1.0905313898016344	0.5502849695564682	-2.4261404152735433	0.8544941616270475	0.5673347620441779	-2.4881122545387884	1.389594899375055	0.11340304793202921	-2.483798613726982	1.086405718648054	0.058176437798383364	-2.439333685848291	0.8458353977172168	0.07552329364486604
23	0.7666666666666667	-2.466421983128187	0.8213450990332635	0.3188456730841035	-2.4245670578809078	0.8374205053903497	0.4135632917897281	-2.2797258937758937	0.5503255946984882	0.43117695306131654	-2.3578998236343343	0.13663455323262277	0.46861381887214104	0.0	0.0	0.0	0.0	0.0	0.0	0.0	0.0	0.0	-2.5079837579009387	0.808096086515521	0.22383412821091764	-2.4923267093830277	0.4526025636468101	0.23438230945809663	-2.5758110608311373	0.07896263987341529	0.2657103533105716	0.0	0.0	0.0	0.0	0.0	0.0	0.0	0.0	0.0	-2.5158499757078885	1.4059037279272548	0.25719556282878897	-2.3274735269820788	1.7191192134328133	0.3585061652826644	-2.3182219776213993	1.6405424878760093	0.27742730344472144	-2.508381164248523	1.4088868279896036	0.4567644982115168	-2.438170851183431	1.0866684901706338	0.5627422119050972	-2.429294293216627	0.8499602169227158	0.5702356295253856	-2.5256388736206663	1.4068329473593073	0.047516121939328186	-2.47052588900742	1.0871585032381854	0.060110468194388124	-2.4235475004165834	0.8499191516209498	0.07243334199654312
24	0.8	-2.4587990898361674	0.821636161821545	0.32200713759964295	-2.422106279450198	0.8360210083233867	0.41747247514295094	-2.2715758357036755	0.5421352302496908	0.430244771465438	-2.3163309646965162	0.12360414592899104	0.463591438561315	0.0	0.0	0.0	0.0	0.0	0.0	0.0	0.0	0.0	-2.494108082187857	0.8108150389725051	0.22692089810734364	-2.4900583378099803	0.449683346357254	0.23299473562227915	-2.5801481395997024	0.07136849929449135	0.26268718553358467	0.0	0.0	0.0	0.0	0.0	0.0	0.0	0.0	0.0	-2.5005685060717413	1.4092547718360378	0.2608152893988021	-2.2888650005187254	1.7079094439520575	0.26224379927402525	-2.296360659197122	1.6442035807331659	0.26389291455709407	-2.4927222488328082	1.4097134937269706	0.46019996835948335	-2.4322095793282967	1.0849603345286256	0.5628624488882567	-2.4276978893578782	0.8447072385032209	0.5732124751418003	-2.5113502130026415	1.4125267556964596	0.05120152382809686	-2.459357602603043	1.0881323765354876	0.062318023899639426	-2.408509588354831	0.8464554751346844	0.07379397045127253
25	0.8333333333333334	-2.4425120624048993	0.8195338911292251	0.32271743074711084	-2.3982247801800964	0.8349339798849401	0.41377970682617166	-2.2585389176806	0.5417616848049809	0.42243491386519294	-2.271380383240362	0.12602598614713661	0.4628774575438272	0.0	0.0	0.0	0.0	0.0	0.0	0.0	0.0	0.0	-2.4860519742470912	0.8067914073770059	0.2317115063745558	-2.4868429791762994	0.44641504986064606	0.23264449103836987	-2.5747569162324586	0.07296328867105197	0.2610416200020058	0.0	0.0	0.0	0.0	0.0	0.0	0.0	0.0	0.0	-2.486024198487307	1.405245270907802	0.2619315593934858	-2.293942108463836	1.717887820799816	0.36029080616187575	-2.272862680135095	1.637685245252339	0.2880423750288629	-2.479885161622513	1.4044886366284624	0.45912289413104357	-2.4225314994387688	1.0824857005305173	0.5619461761472488	-2.4320086826034637	0.8433239799600961	0.5721170172289912	-2.446481049194669	1.3939874170284294	0.11754557594992396	-2.4400961602674176	1.084504899249234	0.06332766597153659	-2.3897609284475148	0.8439247144307516	0.08329104989049503
26	0.8666666666666667	-2.428438236930952	0.8239406862842436	0.3217068049703649	-2.385101966914203	0.8395799635370427	0.4164299501032247	-2.253528071444994	0.533154644147114	0.41670761834324804	-2.218265738201138	0.12321537360690589	0.460171131444295	0.0	0.0	0.0	0.0	0.0	0.0	0.0	0.0	0.0	-2.4710520605640713	0.8107246941028583	0.22712870662003634	-2.476811352214522	0.44343114867870803	0.23636938957541548	-2.568340167027925	0.0629238218715936	0.2668497940170296	0.0	0.0	0.0	0.0	0.0	0.0	0.0	0.0	0.0	-2.472386569352522	1.4058180592919487	0.2655053653668671	-2.277905791000801	1.7163801277557842	0.3554111332651975	-2.2532484074882015	1.629852737064682	0.3010271284698119	-2.4706305137306774	1.4036308924949403	0.4573047439357227	-2.484955923439908	1.1032194695671256	0.5172373484508294	-2.4224818979392633	0.8458434085707233	0.5771370477245565	-2.4773380488467645	1.4111510109072345	0.06434712261388387	-2.422050802513957	1.0872206968195135	0.0632529708487718	-2.3681943628624538	0.8494399342061876	0.08104571756145952
27	0.9	-2.41492546713381	0.82251736841348	0.3244175423333164	-2.3711703016419308	0.8381502472803409	0.41676017112474806	-2.2431034189797563	0.5279959854127242	0.41323543797953344	-2.1790127322462656	0.1269065622499545	0.46413246346770154	0.0	0.0	0.0	0.0	0.0	0.0	0.0	0.0	0.0	-2.4574905108771103	0.8093560472704044	0.2317296709021018	-2.470089219868552	0.4366607407870023	0.2377613154745788	-2.56883604506147	0.05440647981297075	0.27546028824323265	0.0	0.0	0.0	0.0	0.0	0.0	0.0	0.0	0.0	-2.4545333417183253	1.4057199790471628	0.2697060271238003	-2.2440030597268623	1.6999813832125703	0.2845250136986658	-2.2557599968656574	1.6329614905194885	0.28673074410905275	-2.4505372048944447	1.4019868759997187	0.46318434276020515	-2.4667285284600706	1.1042060743518036	0.5189175601301739	-2.427425605513533	0.8421273936732938	0.575186343780942	-2.4616695777285726	1.4129193958609887	0.06662910138511739	-2.4042383989356697	1.088253052020604	0.06464475090637932	-2.3433073458025313	0.8478247289286384	0.08614739841893874
28	0.9333333333333333	-2.402018394153977	0.8184667837473281	0.3247362165451371	-2.3594203544979333	0.8319593827068964	0.41980137265043993	-2.2265914786736856	0.5266477561542943	0.41558770209655704	-2.1471432165050235	0.13169785560900849	0.45789382209138413	0.0	0.0	0.0	0.0	0.0	0.0	0.0	0.0	0.0	-2.4435901771231663	0.8075241582950978	0.22945536452250798	-2.465685658925934	0.4284367847870583	0.24412563626696998	-2.5706971104121816	0.05413432960493799	0.27770186649087125	0.0	0.0	0.0	0.0	0.0	0.0	0.0	0.0	0.0	-2.4352971999829793	1.4086880288977142	0.27136407442923294	-2.246343698233232	1.7123159975082922	0.3559819383228847	-2.231751478897376	1.6352168499981463	0.27183087561048297	-2.4287494026390375	1.4043058544475522	0.4619033470492725	-2.41427589773577	1.0872076718873838	0.5585619673973854	-2.4229451759199927	0.8396250867922549	0.5784710530070484	-2.4448766934761594	1.4160758112785783	0.07154496570199836	-2.3863368606350708	1.0866719361955663	0.07133818629376884	-2.319943387380087	0.8449121649279576	0.09135792115575042
